<svg width="200" height="200" viewBox="0 0 200 200" fill="none" xmlns="http://www.w3.org/2000/svg">
<path d="M29.2993 39.593C33.0312 55.5205 53.6569 64.3172 75.3656 59.2357C97.0576 54.1376 111.619 37.0939 107.887 21.1665C104.155 5.2057 83.5292 -3.59105 61.8206 1.4904C40.1286 6.58852 25.5673 23.6489 29.2993 39.5763V39.593Z" fill="#FF8800"/>
<path d="M28.9994 121.279C48.1923 125.777 67.885 111.866 72.9832 90.1739C78.0979 68.4653 66.6688 47.2231 47.4926 42.6915C28.283 38.1931 8.59026 52.1213 3.49214 73.8133C-1.62264 95.5053 9.80648 116.764 28.9827 121.279H28.9994ZM154.653 121.262C173.846 125.761 193.539 111.849 198.637 90.1406C203.752 68.4486 192.322 47.2065 173.146 42.6915C153.953 38.1765 134.244 52.1047 129.146 73.7967C124.048 95.4886 135.46 116.747 154.636 121.262H154.653Z" fill="#FF8800"/>
<path d="M131.878 59.9022C154.087 61.8682 173.263 50.2391 174.696 33.9285C176.162 17.6345 159.335 2.82328 137.11 0.857338C114.901 -1.1086 95.7249 10.5204 94.2921 26.8311C92.8426 43.1251 109.67 57.9363 131.878 59.9022Z" fill="#FF8800"/>
<path d="M188.491 115.83C189.191 114.93 189.84 113.997 190.457 113.031C190.773 112.531 191.09 112.065 191.39 111.548C191.69 111.049 191.94 110.565 192.223 110.049L193.306 107.933L193.806 106.817C194.256 105.817 194.639 104.768 195.039 103.635L195.372 102.635C196.137 100.298 196.705 97.9021 197.071 95.471C200.237 75.0452 189.107 55.7856 170.914 51.5372L169.915 51.3206C171.347 48.6716 172.214 45.7727 172.48 42.7738C173.93 26.4798 157.086 11.6686 134.877 9.70263C120.966 8.5364 108.237 12.6682 100.29 19.9489C91.9766 10.7356 75.1328 3.68819 59.6052 10.4024C43.2113 17.5664 46.61 41.4409 27.1172 48.505C25.8677 48.9548 27.817 51.0207 28.3501 52.2203C15.5882 56.1188 4.82547 67.498 1.27678 82.709C-0.282631 89.2419 -0.339596 96.0435 1.11017 102.602C1.11017 102.918 1.26012 103.235 1.32676 103.535L1.69329 104.884L2.04316 106.05L2.37637 107.05C2.60656 107.724 2.85658 108.39 3.1261 109.049C5.07538 113.981 8.05761 118.429 11.8729 122.094C15.7381 125.676 17.9873 130.708 18.0373 135.989V153.25C18.1877 161.62 21.2143 169.683 26.6087 176.084C32.003 182.486 39.4363 186.836 47.6597 188.403C64.5201 191.635 81.6471 193.235 98.8408 193.168C115.501 193.202 132.145 191.685 148.539 188.62C156.86 187.092 164.394 182.727 169.858 176.269C175.323 169.811 178.381 161.659 178.511 153.2V138.572C178.574 131.065 181.404 123.846 186.458 118.296C186.958 117.729 187.458 117.13 187.925 116.53L188.491 115.83Z" fill="#42AADF"/>
<path d="M190.74 106.9C191.407 106.001 192.073 105.068 192.689 104.118L193.622 102.652C194.317 101.466 194.957 100.249 195.538 99.0033L196.038 97.9037C196.488 96.8874 196.871 95.8544 197.254 94.7215L197.588 93.7219C198.357 91.3913 198.931 89.0005 199.304 86.5745C202.469 66.1321 191.34 46.8892 173.13 42.5907L172.164 42.4241C173.58 39.7585 174.446 36.8595 174.696 33.8773C176.162 17.5667 159.335 2.8221 137.11 0.856157C123.165 -0.376722 110.42 3.75509 102.506 11.0691C94.2091 1.82247 78.3316 -2.34266 61.8377 1.50592C40.129 6.6207 25.5178 23.6644 29.2997 39.5919C29.5996 40.8747 30.0161 42.1076 30.5492 43.3072C17.8206 47.2057 7.07456 58.5848 3.49255 73.7959C2.13225 79.5289 1.92272 85.4749 2.87611 91.2894C2.87611 91.4894 2.95942 91.7226 2.99274 91.9225L3.32595 93.6719C3.32595 94.0051 3.49255 94.2883 3.55919 94.6049C3.77633 95.4495 4.01521 96.2883 4.2756 97.1206C4.40888 97.5038 4.47552 97.787 4.60881 98.1203L5.10862 99.5197L5.35853 100.136C7.30781 105.051 10.29 109.499 14.0886 113.181C17.9705 116.763 20.2197 121.778 20.2864 127.06V144.353C20.436 152.721 23.4602 160.782 28.8513 167.183C34.2423 173.585 41.6718 177.936 49.8921 179.507C66.7525 182.739 83.8795 184.338 101.057 184.272C117.717 184.355 134.378 182.889 150.755 179.857C159.07 178.314 166.597 173.946 172.062 167.491C177.527 161.037 180.594 152.892 180.744 144.436V129.675C180.811 122.167 183.647 114.947 188.708 109.399C189.207 108.833 189.69 108.233 190.157 107.633L190.74 106.917V106.9Z" fill="#FFF4AE"/>
<path d="M43.0949 37.8269C43.3115 30.0464 47.5433 20.3334 56.44 15.7684C66.3364 10.6869 78.0154 13.9357 84.6796 19.5003C100.49 32.7454 96.1087 65.9665 82.747 71.8144C69.3852 77.6455 42.5285 58.2694 43.0949 37.8269ZM148.973 129.343C145.091 139.989 121.166 140.472 100.707 140.789C80.2479 141.122 57.6729 141.572 53.5244 131.542C48.2264 118.83 72.1509 87.0087 100.974 86.7255C129.18 86.4256 153.721 116.331 148.973 129.343ZM16.8546 92.3568C13.8557 85.7925 13.5225 75.3297 20.47 68.8821C27.4007 62.4511 37.7802 63.4341 44.1279 66.8995C57.1564 73.9969 60.7717 95.5389 52.2582 103.386C43.7447 111.216 22.9357 105.785 16.838 92.3568H16.8546ZM162.701 66.433C168.649 63.634 177.879 63.8673 183.093 69.9817C187.642 75.3131 187.175 82.8769 184.926 87.7751C179.761 99.0376 161.768 103.569 154.837 96.9384C147.906 90.3242 151.338 71.7977 162.701 66.4497V66.433ZM119.717 19.9502C127.297 14.2356 140.659 11.4866 149.939 18.4507C157.703 24.2819 159.485 34.5281 158.486 41.6422C155.803 61.1516 129.446 76.446 117.301 69.5319C105.172 62.6011 103.789 31.8958 119.7 19.9335L119.717 19.9502Z" fill="#42AADF"/>
<path d="M141.875 150.902C141.875 154.161 143.17 157.286 145.474 159.591C147.778 161.895 150.903 163.189 154.162 163.189C157.421 163.189 160.546 161.895 162.85 159.591C165.155 157.286 166.449 154.161 166.449 150.902C166.449 147.644 165.155 144.518 162.85 142.214C160.546 139.91 157.421 138.615 154.162 138.615C150.903 138.615 147.778 139.91 145.474 142.214C143.17 144.518 141.875 147.644 141.875 150.902Z" fill="#42AADF"/>
<path d="M154.471 150.902C154.471 152.318 155.033 153.676 156.035 154.677C157.036 155.679 158.394 156.241 159.81 156.241C161.226 156.241 162.585 155.679 163.586 154.677C164.587 153.676 165.15 152.318 165.15 150.902C165.15 149.486 164.587 148.127 163.586 147.126C162.585 146.125 161.226 145.562 159.81 145.562C158.394 145.562 157.036 146.125 156.035 147.126C155.033 148.127 154.471 149.486 154.471 150.902ZM164.3 72.8472C164.3 74.2656 164.864 75.6258 165.867 76.6288C166.87 77.6317 168.23 78.1952 169.648 78.1952C171.067 78.1952 172.427 77.6317 173.43 76.6288C174.433 75.6258 174.996 74.2656 174.996 72.8472C174.996 71.4288 174.433 70.0685 173.43 69.0655C172.427 68.0626 171.067 67.4991 169.648 67.4991C168.23 67.4991 166.87 68.0626 165.867 69.0655C164.864 70.0685 164.3 71.4288 164.3 72.8472ZM125.798 23.9652C125.798 25.3836 126.361 26.7439 127.364 27.7468C128.367 28.7498 129.727 29.3132 131.146 29.3132C132.564 29.3132 133.925 28.7498 134.927 27.7468C135.93 26.7439 136.494 25.3836 136.494 23.9652C136.494 22.5468 135.93 21.1865 134.927 20.1836C133.925 19.1806 132.564 18.6172 131.146 18.6172C129.727 18.6172 128.367 19.1806 127.364 20.1836C126.361 21.1865 125.798 22.5468 125.798 23.9652ZM48.0099 29.3132C48.0099 30.7316 48.5733 32.0919 49.5763 33.0949C50.5792 34.0978 51.9395 34.6613 53.3579 34.6613C54.7763 34.6613 56.1366 34.0978 57.1395 33.0949C58.1425 32.0919 58.7059 30.7316 58.7059 29.3132C58.7059 27.8949 58.1425 26.5346 57.1395 25.5316C56.1366 24.5287 54.7763 23.9652 53.3579 23.9652C51.9395 23.9652 50.5792 24.5287 49.5763 25.5316C48.5733 26.5346 48.0099 27.8949 48.0099 29.3132ZM18.7207 84.0097C18.7207 85.4281 19.2842 86.7884 20.2871 87.7913C21.2901 88.7943 22.6503 89.3577 24.0687 89.3577C25.4871 89.3577 26.8474 88.7943 27.8504 87.7913C28.8533 86.7884 29.4168 85.4281 29.4168 84.0097C29.4168 82.5913 28.8533 81.231 27.8504 80.2281C26.8474 79.2251 25.4871 78.6617 24.0687 78.6617C22.6503 78.6617 21.2901 79.2251 20.2871 80.2281C19.2842 81.231 18.7207 82.5913 18.7207 84.0097Z" fill="white"/>
</svg>
